<svg xmlns="http://www.w3.org/2000/svg" height="512pt" version="1.1" viewBox="-58 0 512 512.00004" width="512pt">
<g id="surface1">
<path d="M 173.417969 512 L 24.773438 512 C 11.09375 512 0 500.90625 0 487.226562 L 0 206.453125 C 0 192.769531 11.09375 181.679688 24.773438 181.679688 L 173.417969 181.679688 C 187.101562 181.679688 198.191406 192.769531 198.191406 206.453125 L 198.191406 487.226562 C 198.191406 500.90625 187.101562 512 173.417969 512 Z M 173.417969 512 " style=" stroke:none;fill-rule:nonzero;fill:rgb(43.529412%,39.607843%,44.313725%);fill-opacity:1;" />
<path d="M 173.417969 445.933594 L 24.773438 445.933594 C 20.214844 445.933594 16.515625 442.238281 16.515625 437.675781 L 16.515625 222.96875 C 16.515625 218.40625 20.214844 214.710938 24.773438 214.710938 L 173.417969 214.710938 C 177.980469 214.710938 181.675781 218.40625 181.675781 222.96875 L 181.675781 437.675781 C 181.675781 442.238281 177.980469 445.933594 173.417969 445.933594 Z M 173.417969 445.933594 " style=" stroke:none;fill-rule:nonzero;fill:rgb(100%,100%,100%);fill-opacity:1;" />
<path d="M 173.417969 214.710938 L 24.773438 214.710938 C 20.214844 214.710938 16.515625 218.40625 16.515625 222.96875 L 16.515625 231.226562 L 86.941406 231.226562 C 99.21875 231.226562 107.203125 244.148438 101.714844 255.128906 L 91.746094 275.058594 C 88.304688 281.945312 88.652344 289.953125 92.683594 296.472656 C 96.691406 302.960938 103.878906 306.992188 111.441406 306.992188 C 114.882812 306.992188 118.210938 306.199219 121.328125 304.640625 L 181.679688 274.492188 L 181.679688 222.96875 C 181.675781 218.40625 177.980469 214.710938 173.417969 214.710938 Z M 173.417969 214.710938 " style=" stroke:none;fill-rule:nonzero;fill:rgb(92.941176%,92.156863%,92.941176%);fill-opacity:1;" />
<path d="M 41.289062 495.484375 C 27.609375 495.484375 16.515625 484.390625 16.515625 470.710938 L 16.515625 183.082031 C 6.917969 186.496094 0 195.679688 0 206.449219 L 0 487.226562 C 0 500.90625 11.09375 512 24.773438 512 L 173.417969 512 C 184.191406 512 193.371094 505.082031 196.785156 495.484375 Z M 41.289062 495.484375 " style=" stroke:none;fill-rule:nonzero;fill:rgb(36.470588%,32.54902%,37.647059%);fill-opacity:1;" />
<path d="M 256.101562 0 C 179.972656 -0.0546875 119.027344 58.144531 115.746094 134.203125 C 114.484375 163.476562 122.242188 190.839844 136.40625 213.835938 C 137.90625 216.273438 138.101562 219.277344 136.824219 221.839844 L 106.519531 282.445312 C 104.140625 287.199219 109.1875 292.246094 113.941406 289.867188 L 174.550781 259.566406 C 177.109375 258.285156 180.113281 258.480469 182.550781 259.984375 C 205.550781 274.144531 232.910156 281.90625 262.183594 280.644531 C 338.246094 277.359375 396.441406 216.417969 396.390625 140.285156 C 396.332031 62.832031 333.554688 0.0546875 256.101562 0 Z M 256.101562 0 " style=" stroke:none;fill-rule:nonzero;fill:rgb(100%,50.196078%,52.941176%);fill-opacity:1;" />
<path d="M 214.710938 82.582031 C 196.492188 82.582031 181.675781 97.398438 181.675781 115.613281 L 181.675781 123.871094 C 181.675781 142.085938 196.492188 156.902344 214.710938 156.902344 C 220.753906 156.902344 226.347656 155.152344 231.226562 152.308594 L 231.226562 165.160156 C 231.226562 174.269531 223.8125 181.675781 214.710938 181.675781 C 210.015625 181.675781 205.53125 179.671875 202.402344 176.171875 C 199.363281 172.769531 194.152344 172.484375 190.742188 175.527344 C 187.347656 178.566406 187.058594 183.789062 190.097656 187.1875 C 196.355469 194.179688 205.324219 198.191406 214.710938 198.191406 C 232.929688 198.191406 247.742188 183.375 247.742188 165.160156 L 247.742188 115.613281 C 247.742188 97.398438 232.925781 82.582031 214.710938 82.582031 Z M 214.710938 140.386719 C 205.605469 140.386719 198.191406 132.980469 198.191406 123.871094 L 198.191406 115.613281 C 198.191406 106.503906 205.605469 99.097656 214.710938 99.097656 C 223.8125 99.097656 231.226562 106.503906 231.226562 115.613281 L 231.226562 123.871094 C 231.226562 132.980469 223.8125 140.386719 214.710938 140.386719 Z M 214.710938 140.386719 " style=" stroke:none;fill-rule:nonzero;fill:rgb(100%,100%,100%);fill-opacity:1;" />
<path d="M 275.960938 82.582031 C 271.394531 82.582031 267.699219 86.277344 267.699219 90.839844 L 267.699219 189.9375 C 267.699219 194.496094 271.394531 198.195312 275.960938 198.195312 C 280.523438 198.195312 284.21875 194.496094 284.21875 189.9375 L 284.21875 90.839844 C 284.21875 86.277344 280.523438 82.582031 275.960938 82.582031 Z M 275.960938 82.582031 " style=" stroke:none;fill-rule:nonzero;fill:rgb(100%,100%,100%);fill-opacity:1;" />
<path d="M 313.804688 82.582031 C 309.242188 82.582031 305.546875 86.277344 305.546875 90.839844 L 305.546875 189.9375 C 305.546875 194.496094 309.242188 198.195312 313.804688 198.195312 C 318.371094 198.195312 322.0625 194.496094 322.0625 189.9375 L 322.0625 90.839844 C 322.0625 86.277344 318.371094 82.582031 313.804688 82.582031 Z M 313.804688 82.582031 " style=" stroke:none;fill-rule:nonzero;fill:rgb(100%,100%,100%);fill-opacity:1;" />
<path d="M 107.355469 487.226562 L 90.839844 487.226562 C 83.996094 487.226562 78.449219 481.679688 78.449219 474.839844 C 78.449219 467.996094 83.996094 462.453125 90.839844 462.453125 L 107.355469 462.453125 C 114.195312 462.453125 119.742188 467.996094 119.742188 474.839844 C 119.742188 481.679688 114.195312 487.226562 107.355469 487.226562 Z M 107.355469 487.226562 " style=" stroke:none;fill-rule:nonzero;fill:rgb(36.470588%,32.54902%,37.647059%);fill-opacity:1;" />
<path d="M 272.515625 264.257812 C 194.980469 264.257812 132.128906 201.40625 132.128906 123.871094 C 132.128906 87.953125 145.710938 55.269531 167.898438 30.441406 C 137.4375 54.742188 117.582031 91.679688 115.746094 134.203125 C 114.484375 163.480469 122.242188 190.839844 136.40625 213.835938 C 137.90625 216.273438 138.101562 219.277344 136.820312 221.839844 L 106.519531 282.445312 C 104.140625 287.199219 109.1875 292.246094 113.941406 289.867188 L 174.546875 259.5625 C 177.109375 258.28125 180.109375 258.480469 182.550781 259.980469 C 205.546875 274.144531 232.90625 281.902344 262.179688 280.640625 C 304.707031 278.804688 341.644531 258.945312 365.945312 228.488281 C 341.117188 250.675781 308.433594 264.257812 272.515625 264.257812 Z M 272.515625 264.257812 " style=" stroke:none;fill-rule:nonzero;fill:rgb(90.196078%,39.215686%,43.137255%);fill-opacity:1;" />
</g>
</svg>