<svg height="511pt" viewBox="-76 1 511 511.99896" width="511pt" xmlns="http://www.w3.org/2000/svg"><g fill="#273c47"><path d="m343.179688 147.09375h-28.902344v-95.585938h28.902344c8.707031 0 15.765624 7.058594 15.765624 15.765626v64.058593c-.003906 8.703125-7.058593 15.761719-15.765624 15.761719zm0 0"/><path d="m16.265625 115.507812h28.195313v-64h-28.195313c-8.707031 0-15.765625 7.058594-15.765625 15.765626v32.472656c0 8.703125 7.058594 15.761718 15.765625 15.761718zm0 0"/><path d="m16.265625 197.207031h28.535156v-64h-28.535156c-8.707031 0-15.765625 7.058594-15.765625 15.765625v32.472656c0 8.703126 7.058594 15.761719 15.765625 15.761719zm0 0"/></g><path d="m313.746094 0h-268.046875c-18.511719 0-33.523438 15.007812-33.523438 33.523438v444.953124c0 18.511719 15.011719 33.523438 33.523438 33.523438h268.046875c18.515625 0 33.523437-15.011719 33.523437-33.523438v-444.953124c0-18.515626-15.007812-33.523438-33.523437-33.523438zm0 0" fill="#405968"/><path d="m71.570312 512h-25.871093c-18.515625 0-33.523438-15.003906-33.523438-33.519531v-444.960938c0-18.515625 15.007813-33.519531 33.523438-33.519531h25.871093c-18.515624 0-33.519531 15.003906-33.519531 33.519531v444.960938c0 18.515625 15.003907 33.519531 33.519531 33.519531zm0 0" fill="#273c47"/><path d="m24.484375 51.511719h310.46875v389.027343h-310.46875zm0 0" fill="#ef5e72"/><path d="m24.484375 51.511719h13.5625v389.027343h-13.5625zm0 0" fill="#d33752"/><path d="m321.390625 51.511719h13.5625v389.027343h-13.5625zm0 0" fill="#fc92a4"/><path d="m205.59375 34.421875h-51.742188c-4.328124 0-7.835937-3.507813-7.835937-7.835937 0-4.328126 3.507813-7.835938 7.835937-7.835938h51.742188c4.328125 0 7.835938 3.507812 7.835938 7.835938 0 4.328124-3.507813 7.835937-7.835938 7.835937zm0 0" fill="#273c47"/><path d="m205.59375 481.96875h-51.742188c-4.328124 0-7.835937-3.507812-7.835937-7.835938 0-4.328124 3.507813-7.835937 7.835937-7.835937h51.742188c4.328125 0 7.835938 3.507813 7.835938 7.835937 0 4.328126-3.507813 7.835938-7.835938 7.835938zm0 0" fill="#273c47"/><path d="m179.722656 158.730469c-4.328125 0-7.835937-3.511719-7.835937-7.839844v-47.65625c0-4.328125 3.507812-7.835937 7.835937-7.835937s7.835938 3.507812 7.835938 7.835937v47.65625c0 4.328125-3.507813 7.839844-7.835938 7.839844zm0 0" fill="#f4be53"/><path d="m149.765625 330.632812c0 16.546876 13.410156 29.957032 29.957031 29.957032 16.542969 0 29.957032-13.410156 29.957032-29.957032l-32.679688-32.679687zm0 0" fill="#f4be53"/><path d="m284.976562 284.335938v46.300781h-210.503906v-46.300781c15.933594 0 35.808594-24.511719 35.808594-49.015626v-34.042968c0-19.183594 7.773438-36.539063 20.332031-49.109375 12.570313-12.570313 29.925781-20.34375 49.113281-20.34375 38.347657 0 69.441407 31.097656 69.441407 69.453125v34.042968c0 13.667969 6.1875 27.34375 14.429687 36.761719 6.523438 7.457031 14.328125 12.253907 21.378906 12.253907zm0 0" fill="#f7e352"/><path d="m179.71875 131.832031c-8.683594 0-16.539062 7.777344-22.234375 20.335938-5.683594 12.570312-9.207031 29.933593-9.207031 49.109375v34.042968c0 24.503907-9.003906 49.015626-16.214844 49.015626v46.300781h-57.59375v-46.300781c15.933594 0 35.808594-24.511719 35.808594-49.015626v-34.042968c0-19.175782 7.773437-36.539063 20.332031-49.109375 12.570313-12.558594 29.9375-20.335938 49.109375-20.335938zm0 0" fill="#f4be53"/><path d="m284.976562 284.335938h-170.933593v-12.253907h149.554687c6.523438 7.457031 14.328125 12.253907 21.378906 12.253907zm0 0" fill="#f4be53"/></svg>