<svg height="512pt" viewBox="-44 0 512 512" width="512pt" xmlns="http://www.w3.org/2000/svg"><path d="m423.039062 34.324219v443.351562c0 18.953125-15.371093 34.324219-34.335937 34.324219h-319.65625c-18.953125 0-34.324219-15.371094-34.324219-34.324219v-443.351562c0-18.953125 15.371094-34.324219 34.324219-34.324219h319.65625c18.964844 0 34.335937 15.371094 34.335937 34.324219zm0 0" fill="#d33752"/><path d="m423.039062 34.324219v443.351562c0 18.953125-15.371093 34.324219-34.335937 34.324219h-289.007813c-18.964843 0-34.335937-15.371094-34.335937-34.324219v-443.351562c0-18.953125 15.371094-34.324219 34.335937-34.324219h289.007813c18.964844 0 34.335937 15.371094 34.335937 34.324219zm0 0" fill="#ef5e72"/><path d="m73.53125 74.5625c0 5.644531-2.289062 10.742188-5.980469 14.441406-3.695312 3.6875-8.804687 5.976563-14.449219 5.976563h-32.671874c-11.285157 0-20.429688-9.144531-20.429688-20.417969 0-5.640625 2.289062-10.75 5.988281-14.441406 3.6875-3.699219 8.796875-5.984375 14.441407-5.984375h32.671874c11.285157 0 20.429688 9.140625 20.429688 20.425781zm0 0" fill="#f4be53"/><path d="m73.53125 74.5625c0 5.644531-2.289062 10.742188-5.980469 14.441406-3.695312 3.6875-8.804687 5.976563-14.449219 5.976563h-7.148437c-11.273437 0-20.414063-9.144531-20.414063-20.417969 0-5.640625 2.285157-10.75 5.976563-14.441406 3.699219-3.699219 8.808594-5.984375 14.4375-5.984375h7.148437c11.285157 0 20.429688 9.140625 20.429688 20.425781zm0 0" fill="#f7e352"/><path d="m73.53125 364.871094c0 5.640625-2.289062 10.742187-5.980469 14.441406-3.695312 3.6875-8.804687 5.976562-14.449219 5.976562h-32.671874c-11.285157 0-20.429688-9.144531-20.429688-20.417968 0-5.640625 2.289062-10.753906 5.988281-14.441406 3.6875-3.699219 8.796875-5.988282 14.441407-5.988282h32.671874c11.285157 0 20.429688 9.144532 20.429688 20.429688zm0 0" fill="#f4be53"/><path d="m73.53125 364.871094c0 5.640625-2.289062 10.742187-5.980469 14.441406-3.695312 3.6875-8.804687 5.976562-14.449219 5.976562h-7.148437c-11.273437 0-20.414063-9.144531-20.414063-20.417968 0-5.640625 2.285157-10.753906 5.976563-14.441406 3.699219-3.699219 8.808594-5.988282 14.4375-5.988282h7.148437c11.285157 0 20.429688 9.144532 20.429688 20.429688zm0 0" fill="#f7e352"/><path d="m73.53125 437.449219c0 5.640625-2.289062 10.742187-5.980469 14.441406-3.695312 3.6875-8.804687 5.976563-14.449219 5.976563h-32.671874c-11.285157 0-20.429688-9.144532-20.429688-20.417969 0-5.644531 2.289062-10.753907 5.988281-14.441407 3.6875-3.699218 8.796875-5.988281 14.441407-5.988281h32.671874c11.285157 0 20.429688 9.144531 20.429688 20.429688zm0 0" fill="#f4be53"/><path d="m73.53125 437.449219c0 5.640625-2.289062 10.742187-5.980469 14.441406-3.695312 3.6875-8.804687 5.976563-14.449219 5.976563h-7.148437c-11.273437 0-20.414063-9.144532-20.414063-20.417969 0-5.644531 2.285157-10.753907 5.976563-14.441407 3.699219-3.699218 8.808594-5.988281 14.4375-5.988281h7.148437c11.285157 0 20.429688 9.144531 20.429688 20.429688zm0 0" fill="#f7e352"/><path d="m73.53125 292.292969c0 5.644531-2.289062 10.742187-5.980469 14.441406-3.695312 3.6875-8.804687 5.976563-14.449219 5.976563h-32.671874c-11.285157 0-20.429688-9.140626-20.429688-20.417969 0-5.640625 2.289062-10.75 5.988281-14.4375 3.6875-3.699219 8.796875-5.988281 14.441407-5.988281h32.671874c11.285157 0 20.429688 9.140624 20.429688 20.425781zm0 0" fill="#f4be53"/><path d="m73.53125 292.292969c0 5.644531-2.289062 10.742187-5.980469 14.441406-3.695312 3.6875-8.804687 5.976563-14.449219 5.976563h-7.148437c-11.273437 0-20.414063-9.140626-20.414063-20.417969 0-5.640625 2.285157-10.75 5.976563-14.4375 3.699219-3.699219 8.808594-5.988281 14.4375-5.988281h7.148437c11.285157 0 20.429688 9.140624 20.429688 20.425781zm0 0" fill="#f7e352"/><path d="m73.53125 219.71875c0 5.640625-2.289062 10.738281-5.980469 14.4375-3.695312 3.691406-8.804687 5.976562-14.449219 5.976562h-32.671874c-11.285157 0-20.429688-9.140624-20.429688-20.414062 0-5.644531 2.289062-10.753906 5.988281-14.441406 3.6875-3.699219 8.796875-5.988282 14.441407-5.988282h32.671874c11.285157 0 20.429688 9.144532 20.429688 20.429688zm0 0" fill="#f4be53"/><path d="m73.53125 219.71875c0 5.640625-2.289062 10.738281-5.980469 14.4375-3.695312 3.691406-8.804687 5.976562-14.449219 5.976562h-7.148437c-11.273437 0-20.414063-9.140624-20.414063-20.414062 0-5.644531 2.285157-10.753906 5.976563-14.441406 3.699219-3.699219 8.808594-5.988282 14.4375-5.988282h7.148437c11.285157 0 20.429688 9.144532 20.429688 20.429688zm0 0" fill="#f7e352"/><path d="m73.53125 147.140625c0 5.640625-2.289062 10.742187-5.980469 14.4375-3.695312 3.691406-8.804687 5.980469-14.449219 5.980469h-32.671874c-11.285157 0-20.429688-9.144532-20.429688-20.417969 0-5.644531 2.289062-10.753906 5.988281-14.441406 3.6875-3.699219 8.796875-5.988281 14.441407-5.988281h32.671874c11.285157 0 20.429688 9.144531 20.429688 20.429687zm0 0" fill="#f4be53"/><path d="m73.53125 147.140625c0 5.640625-2.289062 10.742187-5.980469 14.4375-3.695312 3.691406-8.804687 5.980469-14.449219 5.980469h-7.148437c-11.273437 0-20.414063-9.144532-20.414063-20.417969 0-5.644531 2.285157-10.753906 5.976563-14.441406 3.699219-3.699219 8.808594-5.988281 14.4375-5.988281h7.148437c11.285157 0 20.429688 9.144531 20.429688 20.429687zm0 0" fill="#f7e352"/><path d="m366.613281 344-33.5 23.746094c-20.941406 14.828125-49.164062 13.925781-69.132812-2.164063-12.394531-9.996093-24.476563-20.292969-36.261719-30.898437-11.847656-10.660156-23.386719-21.644532-34.601562-32.925782-10.011719-10.070312-19.773438-20.382812-29.285157-30.953124-10.625-11.792969-20.929687-23.882813-30.925781-36.296876-14.019531-17.390624-16.503906-41.039062-7.132812-60.679687 1.394531-2.917969 3.039062-5.742187 4.957031-8.453125l23.746093-33.5c4.65625-6.558594 12.816407-8.914062 19.902344-6.65625 2.597656.828125 5.0625 2.277344 7.144532 4.367188l36.738281 36.738281c6.730469 6.730469 6.957031 17.570312.507812 24.574219l-20.5625 22.359374c-4.179687 4.542969-4.589843 11.433594-.941406 16.421876 1.082031 1.476562 2.175781 2.945312 3.285156 4.402343 8.628907 11.425781 17.9375 22.199219 27.902344 32.308594 11.160156 11.347656 23.152344 21.871094 35.96875 31.554687 1.449219 1.109376 2.917969 2.199219 4.382813 3.273438 4.988281 3.652344 11.867187 3.238281 16.421874-.949219l22.359376-20.5625c7.003906-6.4375 17.84375-6.210937 24.574218.515625l36.738282 36.738282c7.777343 7.777343 6.683593 20.6875-2.285157 27.039062zm0 0" fill="#405968"/><path d="m210.015625 158.082031 8.242187 8.242188c6.730469 6.730469 6.957032 17.566406.515626 24.574219l-20.5625 22.355468c-4.183594 4.550782-4.597657 11.4375-.949219 16.417969 2.019531 2.761719 4.074219 5.484375 6.171875 8.164063-5-5.078126-9.800782-10.101563-14.410156-16.402344-3.65625-4.984375-3.242188-11.871094.945312-16.421875l20.5625-22.355469c6.441406-7.003906 6.214844-17.84375-.515625-24.574219zm0 0" fill="#273c47"/><path d="m371.226562 319.828125c5.09375 7.789063 3.328126 18.546875-4.621093 24.179687l-33.496094 23.742188c-20.9375 14.824219-49.160156 13.925781-69.132813-2.167969-48.386718-39-92.078124-82.691406-131.070312-131.074219-9.21875-11.4375-13.457031-25.589843-12.605469-39.519531 1.925781 8.15625 5.660157 15.964844 11.171875 22.808594 38.992188 48.382813 82.683594 92.070313 131.070313 131.070313 19.972656 16.097656 48.195312 16.996093 69.132812 2.171874l33.5-23.746093c2.789063-1.976563 4.816407-4.582031 6.050781-7.464844zm0 0" fill="#273c47"/><path d="m181.527344 129.589844 36.734375 36.734375c6.730469 6.730469 6.953125 17.574219.507812 24.578125l-12.183593 13.246094-60.472657-60.472657 8.363281-11.800781c6.359376-8.976562 19.269532-10.066406 27.050782-2.285156zm0 0" fill="#fff6e3"/><path d="m332.164062 280.226562 36.734376 36.734376c7.777343 7.777343 6.683593 20.683593-2.292969 27.042968l-11.800781 8.363282-60.472657-60.46875 13.25-12.183594c7.007813-6.441406 17.851563-6.21875 24.582031.511718zm0 0" fill="#fff6e3"/><g fill="#ddd3c3"><path d="m210.019531 158.082031 8.238281 8.242188c6.734376 6.730469 6.960938 17.566406.519532 24.574219l-12.191406 13.25-8.246094-8.242188 12.191406-13.253906c6.445312-7 6.21875-17.839844-.511719-24.570313zm0 0"/><path d="m371.226562 319.828125c5.09375 7.789063 3.328126 18.546875-4.621093 24.175781l-11.800781 8.367188-10.371094-10.375 20.742187-14.707032c2.792969-1.976562 4.816407-4.578124 6.050781-7.460937zm0 0"/></g></svg>