<?xml version="1.0" encoding="iso-8859-1"?>
<!-- Generator: Adobe Illustrator 19.0.0, SVG Export Plug-In . SVG Version: 6.00 Build 0)  -->
<svg version="1.1" id="Layer_1" xmlns="http://www.w3.org/2000/svg" xmlns:xlink="http://www.w3.org/1999/xlink" x="0px" y="0px"
	 viewBox="0 0 473.931 473.931" style="enable-background:new 0 0 473.931 473.931;" xml:space="preserve">
<circle style="fill:#49A0AE;" cx="236.966" cy="236.966" r="236.966"/>
<circle style="fill:#F06668;" cx="240.034" cy="281.792" r="135.863"/>
<circle style="fill:#F6A2A3;" cx="240.034" cy="281.792" r="122.763"/>
<ellipse style="fill:#E9E9EA;" cx="240.034" cy="281.792" rx="116.743" ry="114.045"/>
<g>
	<circle style="fill:#626463;" cx="240.895" cy="280.782" r="18.858"/>
	<path style="fill:#626463;" d="M242.084,283.884c-1.534,1.538-4.019,1.53-5.553,0l0,0c-1.534-1.534-1.534-4.022,0-5.557
		l50.162-50.158c1.534-1.538,4.019-1.534,5.553,0l0,0c1.534,1.53,1.534,4.019,0,5.553L242.084,283.884z"/>
	<path style="fill:#626463;" d="M236.532,283.251c-1.534-1.534-1.534-4.019,0-5.553l0,0c1.534-1.534,4.019-1.534,5.553,0
		l63.501,63.494c1.534,1.534,1.534,4.026,0,5.56l0,0c-1.534,1.53-4.026,1.53-5.56,0L236.532,283.251z"/>
	<path style="fill:#626463;" d="M171.114,171.676c2.148,2.155-0.445,8.239-5.803,13.594l0,0c-5.351,5.351-11.439,7.951-13.586,5.796
		l-21.953-21.949c-2.148-2.152,0.445-8.239,5.796-13.59l0,0c5.358-5.354,11.446-7.951,13.594-5.8L171.114,171.676z"/>
	<path style="fill:#626463;" d="M253.471,150.804c0,3.046-6.14,5.512-13.702,5.512l0,0c-7.57,0-13.71-2.462-13.71-5.512v-31.045
		c0-3.042,6.14-5.512,13.71-5.512l0,0c7.562,0,13.702,2.47,13.702,5.512V150.804z"/>
	<path style="fill:#626463;" d="M255.289,112.227c3.042,0,5.504,3.289,5.504,7.349l0,0c0,4.056-2.462,7.349-5.504,7.349h-31.053
		c-3.042,0-5.504-3.293-5.504-7.349l0,0c0-4.06,2.462-7.349,5.504-7.349H255.289z"/>
	<path style="fill:#626463;" d="M328.643,191.174c-2.148,2.148-8.236-0.445-13.586-5.803l0,0
		c-5.358-5.351-7.951-11.439-5.803-13.586l21.953-21.953c2.155-2.152,8.236,0.445,13.594,5.796l0,0
		c5.351,5.358,7.944,11.439,5.796,13.594L328.643,191.174z"/>
	<path style="fill:#626463;" d="M350.801,393.947c2.148,2.151-0.445,8.236-5.803,13.594l0,0c-5.351,5.351-11.439,7.948-13.586,5.796
		l-21.953-21.953c-2.155-2.148,0.445-8.236,5.796-13.586l0,0c5.358-5.358,11.439-7.951,13.594-5.803L350.801,393.947z"/>
	<path style="fill:#626463;" d="M146.883,412.918c-2.148,2.151-8.236-0.445-13.586-5.796l0,0
		c-5.358-5.354-7.951-11.439-5.803-13.594l21.953-21.949c2.148-2.152,8.236,0.445,13.594,5.8l0,0
		c5.351,5.351,7.944,11.439,5.796,13.586L146.883,412.918z"/>
</g>
<g>
	<path style="fill:#DB4A4B;" d="M174.564,118.644c22.488,21.792-56.426,103.235-78.914,81.439
		c-22.495-21.788-23.057-57.683-1.265-80.178C116.174,97.417,152.069,96.855,174.564,118.644z"/>
	<path style="fill:#DB4A4B;" d="M385.308,199.294c-21.785,22.492-103.235-56.422-81.436-78.914
		c21.785-22.488,57.683-23.053,80.178-1.265C406.538,140.911,407.104,176.806,385.308,199.294z"/>
</g>
<g>
	<circle style="fill:#626463;" cx="100.369" cy="123.1" r="13.07"/>
	<path style="fill:#626463;" d="M380.406,117.488c-11.768,0-25.657-12.153-41.751-26.233
		c-24.722-21.631-55.498-48.557-97.944-48.557c-0.109,0-0.213,0.026-0.322,0.034c-0.109-0.007-0.213-0.034-0.322-0.034
		c-42.454,0-73.219,26.922-97.952,48.557c-16.086,14.08-29.986,26.233-41.743,26.233c-3.106,0-5.613,2.514-5.613,5.613
		c0,3.102,2.507,5.613,5.613,5.613c15.981,0,31.345-13.44,49.141-29.01c24.527-21.455,52.325-45.777,90.554-45.777
		c0.109,0,0.213-0.022,0.322-0.034c0.109,0.011,0.213,0.034,0.322,0.034c38.23,0,66.027,24.321,90.554,45.777
		c17.796,15.569,33.156,29.01,49.141,29.01c3.098,0,5.613-2.511,5.613-5.613C386.019,120.002,383.504,117.488,380.406,117.488z"/>
	<circle style="fill:#626463;" cx="380.387" cy="123.1" r="13.074"/>
</g>
<g>
</g>
<g>
</g>
<g>
</g>
<g>
</g>
<g>
</g>
<g>
</g>
<g>
</g>
<g>
</g>
<g>
</g>
<g>
</g>
<g>
</g>
<g>
</g>
<g>
</g>
<g>
</g>
<g>
</g>
</svg>
