<?xml version="1.0" encoding="iso-8859-1"?>
<!-- Generator: Adobe Illustrator 19.0.0, SVG Export Plug-In . SVG Version: 6.00 Build 0)  -->
<svg version="1.1" id="Layer_1" xmlns="http://www.w3.org/2000/svg" xmlns:xlink="http://www.w3.org/1999/xlink" x="0px" y="0px"
	 viewBox="0 0 473.935 473.935" style="enable-background:new 0 0 473.935 473.935;" xml:space="preserve">
<circle style="fill:#344E5D;" cx="236.967" cy="236.967" r="236.967"/>
<path style="fill:#EAE744;" d="M242.745,66.611c-16.494,0-29.867,13.377-29.867,29.867c0,16.494,13.373,29.863,29.867,29.863
	c16.486,0,29.867-13.369,29.867-29.863C272.612,79.988,259.231,66.611,242.745,66.611z M243.168,117.612
	c-10.035,0-18.174-8.135-18.174-18.17s8.142-18.166,18.174-18.166c10.032,0,18.166,8.135,18.166,18.166
	C261.338,109.477,253.203,117.612,243.168,117.612z"/>
<path style="fill:#E3A93F;" d="M118.484,332.862c0,0,50.447,33.598,124.261,33.598s126.686-33.598,126.686-33.598
	s-67.521-23.667-126.686-23.667S118.484,332.862,118.484,332.862z"/>
<path style="fill:#ECB050;" d="M118.484,332.862c0,0,50.447,33.598,124.261,33.598v-57.264
	C183.576,309.195,118.484,332.862,118.484,332.862z"/>
<circle style="fill:#DDD555;" cx="241.607" cy="328.641" r="27.607"/>
<path style="fill:#EAE744;" d="M242.992,107.591c-91.475,0-80.493,83.442-96.145,145.118c-0.606,2.406-15.188,11.323-22.713,27.48
	c-7.521,16.161-6.204,52.673-5.65,52.673c2.294,0,78.057-18.028,124.261-18.028s126.686,19.199,126.686,19.199
	s0.131-41.111-7.308-54.275c-7.431-13.16-21.44-23.162-22.114-25.755C324.039,191.849,334.463,107.591,242.992,107.591z"/>
<path style="fill:#F1E85F;" d="M242.992,107.591c-91.475,0-80.493,83.442-96.145,145.118c-0.606,2.406-15.188,11.323-22.713,27.48
	c-7.521,16.161-6.204,52.673-5.65,52.673c2.294,0,78.057-18.028,124.261-18.028L242.992,107.591z"/>
<g>
</g>
<g>
</g>
<g>
</g>
<g>
</g>
<g>
</g>
<g>
</g>
<g>
</g>
<g>
</g>
<g>
</g>
<g>
</g>
<g>
</g>
<g>
</g>
<g>
</g>
<g>
</g>
<g>
</g>
</svg>
