<?xml version="1.0" encoding="iso-8859-1"?>
<!-- Generator: Adobe Illustrator 16.0.0, SVG Export Plug-In . SVG Version: 6.00 Build 0)  -->
<!DOCTYPE svg PUBLIC "-//W3C//DTD SVG 1.1//EN" "http://www.w3.org/Graphics/SVG/1.1/DTD/svg11.dtd">
<svg version="1.1" id="Capa_1" xmlns="http://www.w3.org/2000/svg" xmlns:xlink="http://www.w3.org/1999/xlink" x="0px" y="0px"
	 width="95.578px" height="95.578px" viewBox="0 0 95.578 95.578" style="enable-background:new 0 0 95.578 95.578;"
	 xml:space="preserve">
<g>
	<g>
		<path d="M54.016,25.378c0,2.597,1.062,4.945,2.776,6.636c2.296-0.188,4.306-0.503,5.602-0.789
			c0.349-0.077,0.705-0.115,1.059-0.115c1.791,0,3.407,1,4.268,2.501c2.943-1.568,4.949-4.666,4.949-8.234
			c0-2.722-1.173-5.163-3.031-6.868L67.68,19.36l0.646-1.857c-1.442-0.915-3.148-1.453-4.982-1.453
			C58.19,16.05,54.016,20.227,54.016,25.378z"/>
		<path d="M88.971,43.722c-1.92-3.895-3.35-6.305-4.413-7.829h-1.624c0,0,0.577-1.35,0.426-1.538
			c-0.001-0.001-0.002-0.003-0.003-0.004c-0.178-0.182-4.469-0.739-4.469-0.739l1.936-0.96c-1.923-0.804-5.39-1.995-8.464-3.013
			c-0.906,1.991-2.417,3.645-4.303,4.729c0.069,0.195,0.143,0.39,0.188,0.596c0.586,2.646-1.087,5.278-3.729,5.868
			c-0.55,0.122-5.538,1.192-11.737,1.192c-1.046,0-2.06-0.037-3.051-0.098c-0.739-0.535-2.371-3.907-2.371-3.907
			c-0.938-1.767-3.131-2.438-4.896-1.5c-1.767,0.938-2.437,3.13-1.5,4.896c0,0,3.916,8.512,8.189,8.878
			c0.09,0.005,0.178,0.008,0.266,0.008c1.961,0,3.474-1.283,5.328-3.783v2.125c1.657,0.25,4.549,0.816,4.549,0.816l-4.549,3.22
			v3.782c0,0.984,0.194,2.402,0.532,3.247c-0.023,0.181-0.054,14.067-0.054,14.067c1.376,1.248,2.621,2.529,2.51,2.695
			c-0.117,0.176-1.337,0.174-2.51,0.129v1.561l-8.896,8.111c-1.746,1.594-1.871,4.301-0.278,6.047
			c0.845,0.926,2.002,1.396,3.163,1.396c1.03,0,2.063-0.37,2.884-1.116l10.291-9.386c0.89-0.812,1.396-1.959,1.396-3.163v-5.207
			l-3.16-1.605l3.159-1.775l-0.001-6.79c0.169,0.008,0.339,0.021,0.51,0.021c0.421,0,0.838-0.032,1.253-0.08l3.94,14.672
			c0.141,0.52,0.376,1.007,0.696,1.439l3.896,5.254l2.615-0.256l-0.578,1.271l2.774,0.81l-2.771,0.927l2.415,3.256
			c0.84,1.132,2.131,1.729,3.44,1.729c0.886,0,1.779-0.274,2.547-0.843c1.897-1.408,2.295-4.088,0.887-5.987l-7.867-10.608
			L75.692,69.4l-3.023-0.461l2.204-2.588l-1.787-6.652c0.476-0.973,0.75-2.059,0.75-3.239v-6.694l-3.388-2.082l3.388-0.527v-1.089
			l-2.347-1.042l2.348-0.605v-6.633c1.993,0.689,3.617,1.277,4.315,1.583c0.81,0.982,2.744,4.353,4.324,7.555
			c0.631,1.279,1.916,2.02,3.25,2.02c0.538,0,1.083-0.119,1.6-0.373C89.118,47.687,89.856,45.515,88.971,43.722z"/>
		<circle cx="23.035" cy="17.5" r="9.91"/>
		<path d="M35.013,59.742c0.81-0.858,1.418-1.934,1.701-3.251l3.229-15.071c-0.291-0.903-0.308-1.872-0.023-2.8
			c0.367-1.199,1.179-2.183,2.287-2.771c0.675-0.359,1.435-0.549,2.197-0.549c1.743,0,3.332,0.955,4.149,2.493l0.707,1.34
			c0.295,0.563,0.603,1.144,0.892,1.67c1.026,0.064,2.036,0.093,3.016,0.093c6.134,0,11.108-1.079,11.504-1.167
			c2.072-0.462,3.376-2.515,2.917-4.588c-0.46-2.073-2.517-3.376-4.588-2.923c-0.089,0.02-0.202,0.041-0.298,0.061l-0.632,2.994
			l-2.171-2.524c-5.396,0.72-14.248,0.996-19.341-2.412c-0.985-1.814-2.665-3.263-4.393-4.101c0,0-0.955-0.524-2.046-0.733
			c-1.043-0.198-2.252-0.206-2.252-0.206l-0.029-0.002c-3.431,0.1-7.471,2.012-8.325,5.997l-4.682,21.44
			c-0.375,1.75-0.354,3.289,0.612,4.268c-0.038,0.166-0.09,0.324-0.111,0.497l-1.925,16.052L7.239,86.727
			C5.609,88.836,6,91.868,8.112,93.496c0.878,0.678,1.915,1.006,2.944,1.006c1.446,0,2.875-0.646,3.826-1.878l10.98-14.229
			c0.532-0.689,0.868-1.51,0.971-2.375l1.037-8.646l3.164,6.996l-3.192,15.4c-0.542,2.61,1.136,5.166,3.746,5.707
			c0.331,0.067,0.66,0.102,0.985,0.102c2.24,0,4.25-1.568,4.722-3.848l3.512-16.939c0.207-1,0.092-2.039-0.329-2.969L35.013,59.742z
			"/>
		<polygon points="31.118,1.61 33.148,5.082 36.965,3.682 34.959,8.224 38.747,9.052 35.891,11.58 39.955,14.187 35.676,15.415 
			35.875,16.113 41.697,14.442 37.092,11.487 40.298,8.648 35.982,7.705 38.321,2.413 33.469,4.191 31.017,0 28.71,5.389 
			29.378,5.675 		"/>
	</g>
</g>
<g>
</g>
<g>
</g>
<g>
</g>
<g>
</g>
<g>
</g>
<g>
</g>
<g>
</g>
<g>
</g>
<g>
</g>
<g>
</g>
<g>
</g>
<g>
</g>
<g>
</g>
<g>
</g>
<g>
</g>
</svg>
