<?xml version="1.0" encoding="iso-8859-1"?>
<!-- Generator: Adobe Illustrator 19.0.0, SVG Export Plug-In . SVG Version: 6.00 Build 0)  -->
<svg version="1.1" id="Layer_1" xmlns="http://www.w3.org/2000/svg" xmlns:xlink="http://www.w3.org/1999/xlink" x="0px" y="0px"
	 viewBox="0 0 473.931 473.931" style="enable-background:new 0 0 473.931 473.931;" xml:space="preserve">
<circle style="fill:#49A0AE;" cx="236.966" cy="236.966" r="236.966"/>
<g>
	<path style="fill:#D62127;" d="M411.508,277.111c0,12.093-25.324,21.901-37.41,21.901l-90.936-0.341V172.132
		c0-10.29,22.997-10.978,38.001-11.259c15.012-0.281,51.363-1.688,61.937,7.985C412.417,195.679,411.508,277.111,411.508,277.111z"
		/>
	<path style="fill:#D62127;" d="M283.794,303.823H86.408c-16.063,0-18.578-13.029-18.578-29.092v-14.353
		c0-16.071,13.029-21.395,29.092-21.395H283.79v64.841H283.794z"/>
	<path style="fill:#D62127;" d="M416.772,286.712c0,9.444-7.659,17.107-17.107,17.107h-99.101c-9.448,0-17.107-7.663-17.107-17.107
		v-45.818c0-9.444,7.659-17.107,17.107-17.107l99.097,11.143c9.448,0,17.107,7.667,17.107,17.107v34.675H416.772z"/>
</g>
<path style="fill:#C02026;" d="M416.619,295.629c0,4.988-4.049,9.033-9.033,9.033H78.304c-4.984,0-9.025-4.045-9.025-9.033v-5.01
	c0-4.984,347.34-4.984,347.34,0V295.629z"/>
<circle style="fill:#202121;" cx="150.232" cy="301.736" r="30.196"/>
<circle style="fill:#5E5F5E;" cx="150.232" cy="301.736" r="17.972"/>
<circle style="fill:#A19F9F;" cx="150.232" cy="301.736" r="6.72"/>
<circle style="fill:#202121;" cx="361.192" cy="301.736" r="30.196"/>
<circle style="fill:#5E5F5E;" cx="361.192" cy="301.736" r="17.972"/>
<circle style="fill:#A19F9F;" cx="361.192" cy="301.736" r="6.72"/>
<g>
	<path style="fill:#9DDAEC;" d="M327.445,217.943c0,2.765-2.245,5.018-5.021,5.018h-26.016c-2.769,0-5.014-2.253-5.014-5.018
		v-41.096c0-2.773,2.245-5.018,5.014-5.018h26.016c2.776,0,5.021,2.245,5.021,5.018V217.943z"/>
	<path style="fill:#9DDAEC;" d="M389.154,222.96h-49.402c-2.769,0-5.014-2.253-5.014-5.018v-41.096c0-2.773,2.245-5.018,5.014-5.018
		h31.352C384.2,171.829,400.103,222.96,389.154,222.96z"/>
</g>
<rect x="67.202" y="256.124" style="fill:#D62127;" width="349.742" height="10.103"/>
<g>
	<path style="fill:#EDAF1E;" d="M398.157,126.535c-0.528-2.26-2.799-3.663-5.059-3.124l-263.925,62.585
		c-2.264,0.535-3.667,2.803-3.136,5.063c0.543,2.26,2.806,3.663,5.066,3.124l263.925-62.581
		C397.289,131.07,398.699,128.795,398.157,126.535z"/>
	<path style="fill:#EDAF1E;" d="M133.888,187.414c-1.418-1.841-4.064-2.178-5.897-0.756l-52.912,35.996
		c-1.841,1.418-2.185,4.067-0.76,5.901c1.418,1.837,4.056,2.181,5.89,0.76l52.912-35.992
		C134.962,191.9,135.313,189.254,133.888,187.414z"/>
</g>
<g>
	<path style="fill:#FFC10D;" d="M398.157,133.936c-0.528-2.26-2.799-3.663-5.059-3.124L129.173,193.4
		c-2.264,0.535-3.667,2.803-3.136,5.063c0.543,2.26,2.806,3.663,5.066,3.124l263.925-62.581
		C397.289,138.471,398.699,136.2,398.157,133.936z"/>
	<path style="fill:#FFC10D;" d="M133.888,194.818c-1.418-1.841-4.064-2.178-5.897-0.756l-52.912,35.996
		c-1.841,1.418-2.185,4.067-0.76,5.901c1.418,1.837,4.056,2.181,5.89,0.76l52.912-35.992
		C134.962,199.305,135.313,196.659,133.888,194.818z"/>
</g>
<path style="fill:#EDC92C;" d="M360.807,161.846H345.84v-12.471c0-4.135,3.349-7.491,7.484-7.491l0,0
	c4.135,0,7.484,3.353,7.484,7.491V161.846z"/>
<path style="fill:#F37C2A;" d="M353.555,161.846h-7.719v-12.471c0-4.135,3.349-7.491,7.484-7.491l0,0L353.555,161.846z"/>
<polygon style="fill:#D62127;stroke:#D62127;stroke-width:2;stroke-linecap:round;stroke-linejoin:round;stroke-miterlimit:10;" points="
	146.999,239.016 108.867,239.016 81.424,219.219 81.424,210.485 146.284,206.747 "/>
<g>
</g>
<g>
</g>
<g>
</g>
<g>
</g>
<g>
</g>
<g>
</g>
<g>
</g>
<g>
</g>
<g>
</g>
<g>
</g>
<g>
</g>
<g>
</g>
<g>
</g>
<g>
</g>
<g>
</g>
</svg>
