<?xml version="1.0" encoding="iso-8859-1"?>
<!-- Generator: Adobe Illustrator 19.0.0, SVG Export Plug-In . SVG Version: 6.00 Build 0)  -->
<svg version="1.1" id="Layer_1" xmlns="http://www.w3.org/2000/svg" xmlns:xlink="http://www.w3.org/1999/xlink" x="0px" y="0px"
	 viewBox="0 0 473.935 473.935" style="enable-background:new 0 0 473.935 473.935;" xml:space="preserve">
<circle style="fill:#49A0AE;" cx="236.967" cy="236.967" r="236.967"/>
<path style="fill:#3A3A3A;" d="M337.315,205.117c-42.967-52.658-85.455-66.039-125.687-66.84
	c-42.776-0.857-89.597,13.268-120.92,62.058l-0.094-0.004c0,0-18.013,10.35-37.249,13.164c-14.26,2.084-19.244,14.148-19.513,27.42
	c-0.337,17.22,10.211,27.068,63.749,36.673c0,0,314.493,6.286,325.397,6.503c7.577,0.146,8.52-15.012,8.52-15.012
	C432.64,212.578,361.749,205.783,337.315,205.117z"/>
<path style="fill:#D7D7D7;" d="M337.315,205.117c-42.967-52.658-85.455-66.039-125.687-66.84
	c-41.957-0.846-87.775,12.819-119.071,59.382l82.319,81.144c49.968,1.179,113.503,2.597,163.393,3.596v-77.249
	C337.955,205.14,337.614,205.125,337.315,205.117z"/>
<path style="fill:#818282;" d="M246.7,274.875c105.683,0.213,183.991-0.269,183.991-0.269s0.086,1.182,0.382,4.509
	c0.367,4.18-1.762,7.001-4.838,6.937l-328.357-6.563l-0.49-7.592C129.631,271.272,141.017,274.666,246.7,274.875z"/>
<g>
	<path style="fill:#202121;" d="M400.472,272.582c0.43-21.463-16.617-39.214-38.084-39.641
		c-21.467-0.427-39.21,16.621-39.633,38.084c-0.43,21.463,16.621,39.206,38.076,39.641
		C382.302,311.081,400.038,294.037,400.472,272.582z"/>
	<circle style="fill:#202121;" cx="134.151" cy="267.238" r="38.87"/>
</g>
<g>
	<circle style="fill:#818282;" cx="361.606" cy="271.803" r="18.952"/>
	<circle style="fill:#818282;" cx="134.151" cy="267.276" r="18.956"/>
</g>
<g>
	<path style="fill:#A3DADA;" d="M217.929,202.738l99.838,1.994c-33.785-41.713-67.191-52.262-98.821-52.898L217.929,202.738z"/>
	<path style="fill:#A3DADA;" d="M205.922,202.498l-99.838-1.987c35.416-40.333,69.216-49.549,100.86-48.92l-0.539,26.724
		L205.922,202.498z"/>
</g>
<path style="fill:#EDC92C;" d="M220.092,139.165h-14.967v-12.471c0-4.135,3.349-7.491,7.484-7.491l0,0
	c4.131,0,7.484,3.353,7.484,7.491V139.165z"/>
<path style="fill:#F37C2A;" d="M212.84,139.165h-7.716v-12.471c0-4.135,3.349-7.491,7.484-7.491l0,0L212.84,139.165z"/>
<path style="fill:#E79E2D;" d="M266.819,227.501c2.99-4.408-0.138-11.884-7.102-9.414c-6.731,2.398-14.155-2.705-14.481-2.93v-0.015
	l-0.034-0.011l0,0l0,0l0,0l0,0l-0.022,0.011v0.015c-0.329,0.228-7.753,5.328-14.492,2.93c-6.956-2.47-10.088,5.007-7.098,9.414
	c3.248,4.778,3.794,7.117,3.794,8.052c-0.011,2.522-9.358,7.891-2.058,19.775c2.713,4.408,4.516,3.794,14.66,4.778
	c0,0,4.591,1.673,5.22,4.681v-1.377v1.377c0.636-3.008,5.22-4.681,5.22-4.681c10.148-0.988,11.955-0.374,14.672-4.778
	c7.293-11.884-2.05-17.253-2.065-19.775C263.025,234.618,263.575,232.279,266.819,227.501z"/>
<path style="fill:#FFC10D;" d="M258.157,235.849c-0.202-0.636-0.756-1.096-1.426-1.194l-6.915-1.007l-3.094-6.271
	c-0.591-1.212-2.574-1.212-3.166,0l-3.094,6.271l-6.922,1.007c-0.662,0.097-1.209,0.558-1.422,1.194
	c-0.21,0.644-0.034,1.351,0.449,1.818l5.007,4.876l-1.179,6.885c-0.12,0.666,0.153,1.336,0.7,1.732
	c0.546,0.393,1.265,0.442,1.86,0.131l6.189-3.252l6.181,3.252c0.254,0.135,0.539,0.206,0.819,0.206c0.37,0,0.73-0.116,1.04-0.337
	c0.546-0.393,0.819-1.066,0.703-1.732l-1.179-6.885l5.003-4.876C258.195,237.199,258.37,236.488,258.157,235.849z"/>
<g>
</g>
<g>
</g>
<g>
</g>
<g>
</g>
<g>
</g>
<g>
</g>
<g>
</g>
<g>
</g>
<g>
</g>
<g>
</g>
<g>
</g>
<g>
</g>
<g>
</g>
<g>
</g>
<g>
</g>
</svg>
